<?xml version="1.0" encoding="UTF-8"?>
<!DOCTYPE svg PUBLIC "-//W3C//DTD SVG 1.1//EN" "http://www.w3.org/Graphics/SVG/1.1/DTD/svg11.dtd">
<svg xmlns="http://www.w3.org/2000/svg" version="1.1" width="3840px" height="2160px" style="shape-rendering:geometricPrecision; text-rendering:geometricPrecision; image-rendering:optimizeQuality; fill-rule:evenodd; clip-rule:evenodd" xmlns:xlink="http://www.w3.org/1999/xlink">
<g><path style="opacity:0.993" fill="#228ee0" d="M 228.5,457.5 C 277.171,457.167 325.838,457.5 374.5,458.5C 438.313,609.291 501.98,760.124 565.5,911C 522.833,911.667 480.167,911.667 437.5,911C 425.5,881 413.5,851 401.5,821C 333.833,820.333 266.167,820.333 198.5,821C 186.806,850.248 175.806,879.748 165.5,909.5C 123.495,909.833 81.4947,909.5 39.5,908.5C 102.312,758.056 165.312,607.723 228.5,457.5 Z M 299.5,563.5 C 319.927,615.537 340.26,667.704 360.5,720C 319.501,720.5 278.501,720.667 237.5,720.5C 257.883,668.065 278.55,615.732 299.5,563.5 Z"/></g>
<g><path style="opacity:0.992" fill="#228ee0" d="M 574.5,457.5 C 633.738,457.169 692.905,457.502 752,458.5C 786.408,554.971 821.074,651.304 856,747.5C 889.134,650.907 921.967,554.24 954.5,457.5C 1012.98,457.004 1071.31,457.504 1129.5,459C 1129.5,608.333 1129.5,757.667 1129.5,907C 1129.04,907.414 1128.71,907.914 1128.5,908.5C 1091.84,909.5 1055.17,909.833 1018.5,909.5C 1018.67,799.499 1018.5,689.499 1018,579.5C 979.556,689.501 940.722,799.335 901.5,909C 885.333,909.167 869.167,909.333 853,909.5C 836.447,909.493 820.114,908.826 804,907.5C 765.333,797.5 726.667,687.5 688,577.5C 687.5,688.166 687.333,798.833 687.5,909.5C 649.927,909.83 612.427,909.496 575,908.5C 574.5,758.167 574.333,607.834 574.5,457.5 Z"/></g>
<g><path style="opacity:0.992" fill="#228ee0" d="M 1204.5,457.5 C 1324.5,457.333 1444.5,457.5 1564.5,458C 1564.83,491.667 1565.17,525.333 1565.5,559C 1482.83,559.5 1400.17,559.667 1317.5,559.5C 1317.5,584.5 1317.5,609.5 1317.5,634.5C 1398.17,634.5 1478.83,634.5 1559.5,634.5C 1559.5,666.833 1559.5,699.167 1559.5,731.5C 1478.83,731.5 1398.17,731.5 1317.5,731.5C 1317.5,758.167 1317.5,784.833 1317.5,811.5C 1400.31,811.003 1482.97,811.503 1565.5,813C 1565.36,844.765 1565.03,876.598 1564.5,908.5C 1444.83,909.667 1325.17,909.833 1205.5,909C 1204.5,758.57 1204.17,608.07 1204.5,457.5 Z"/></g>
<g><path style="opacity:0.991" fill="#228ee0" d="M 1627.5,457.5 C 1715.83,457.333 1804.17,457.5 1892.5,458C 1937.22,461.318 1974.05,479.818 2003,513.5C 2029.83,552.124 2037.83,594.457 2027,640.5C 2008.73,698.108 1969.9,732.274 1910.5,743C 1958.31,798.315 2006.31,853.481 2054.5,908.5C 2009.17,909.667 1963.84,909.833 1918.5,909C 1874.88,855.043 1830.88,801.376 1786.5,748C 1770.5,747.5 1754.5,747.333 1738.5,747.5C 1738.67,801.168 1738.5,854.834 1738,908.5C 1701.33,909.833 1664.67,909.833 1628,908.5C 1627.5,758.167 1627.33,607.834 1627.5,457.5 Z M 1740.5,560.5 C 1762.33,559.833 1784.33,559.5 1806.5,559.5C 1831.19,559.374 1855.86,559.874 1880.5,561C 1910.94,569.719 1923.77,589.552 1919,620.5C 1912.54,636.29 1901.04,646.457 1884.5,651C 1837.54,652.475 1790.54,652.975 1743.5,652.5C 1742.76,621.39 1741.76,590.723 1740.5,560.5 Z"/></g>
<g><path style="opacity:0.996" fill="#228ee0" d="M 2074.5,457.5 C 2112.83,457.5 2151.17,457.5 2189.5,457.5C 2189.5,608.167 2189.5,758.833 2189.5,909.5C 2151.17,909.5 2112.83,909.5 2074.5,909.5C 2074.5,758.833 2074.5,608.167 2074.5,457.5 Z"/></g>
<g><path style="opacity:0.993" fill="#228ee0" d="M 2440.5,457.5 C 2488.5,457.5 2536.5,457.5 2584.5,457.5C 2584.67,493.502 2584.5,529.502 2584,565.5C 2541.67,565.167 2499.33,564.833 2457,564.5C 2408.3,567.858 2376.64,592.858 2362,639.5C 2352.56,675.467 2353.56,711.133 2365,746.5C 2376.08,775.919 2396.58,795.419 2426.5,805C 2436.29,808.025 2446.29,810.025 2456.5,811C 2472.32,811.015 2487.99,811.682 2503.5,813C 2488.04,844.757 2472.71,876.59 2457.5,908.5C 2360.74,916.072 2294.58,875.072 2259,785.5C 2242.65,736.234 2238.31,685.901 2246,634.5C 2265.32,525.346 2330.15,466.346 2440.5,457.5 Z"/></g>
<g><path style="opacity:0.993" fill="#228ee0" d="M 2696.5,457.5 C 2745.17,457.167 2793.84,457.5 2842.5,458.5C 2906.17,608.5 2969.83,758.5 3033.5,908.5C 2990.84,909.667 2948.17,909.833 2905.5,909C 2893.5,878.667 2881.5,848.333 2869.5,818C 2801.83,817.333 2734.17,817.333 2666.5,818C 2654.5,848.333 2642.5,878.667 2630.5,909C 2588.83,909.5 2547.17,909.667 2505.5,909.5C 2568.61,758.609 2632.28,607.942 2696.5,457.5 Z M 2767.5,563.5 C 2788.2,615.243 2808.53,667.243 2828.5,719.5C 2787.51,720.5 2746.51,720.833 2705.5,720.5C 2725.88,668.065 2746.55,615.732 2767.5,563.5 Z"/></g>
<g><path style="opacity:0.994" fill="#228ee0" d="M 3043.5,457.5 C 3090.5,457.167 3137.5,457.5 3184.5,458.5C 3244.58,552.331 3304.42,646.331 3364,740.5C 3364.5,646.167 3364.67,551.834 3364.5,457.5C 3401.17,457.5 3437.83,457.5 3474.5,457.5C 3474.5,608.167 3474.5,758.833 3474.5,909.5C 3429.16,909.833 3383.83,909.5 3338.5,908.5C 3277.2,812.033 3215.7,715.699 3154,619.5C 3153.5,716.166 3153.33,812.833 3153.5,909.5C 3116.83,909.833 3080.16,909.5 3043.5,908.5C 3043.29,907.914 3042.96,907.414 3042.5,907C 3043.07,757.216 3043.4,607.382 3043.5,457.5 Z"/></g>
<g><path style="opacity:0.99" fill="#228ee0" d="M 3168.5,1244.5 C 3245.17,1244.33 3321.83,1244.5 3398.5,1245C 3383.09,1279.15 3367.42,1313.15 3351.5,1347C 3285.5,1347.33 3219.5,1347.67 3153.5,1348C 3126.96,1352.58 3116.46,1368.08 3122,1394.5C 3125.74,1407.24 3133.9,1415.74 3146.5,1420C 3187.02,1421.15 3227.52,1421.98 3268,1422.5C 3302.38,1421.22 3333.54,1430.72 3361.5,1451C 3384.91,1472.33 3398.41,1498.83 3402,1530.5C 3406.75,1567.74 3400.08,1602.74 3382,1635.5C 3355.77,1673.71 3319.27,1693.88 3272.5,1696C 3188.9,1698.14 3105.56,1699.98 3022.5,1701.5C 3022.5,1668.17 3022.5,1634.83 3022.5,1601.5C 3100.5,1601.67 3178.5,1601.5 3256.5,1601C 3283.85,1594.81 3294.35,1577.98 3288,1550.5C 3281.32,1535.57 3269.82,1527.07 3253.5,1525C 3213.17,1524.67 3172.83,1524.33 3132.5,1524C 3069.99,1519.86 3030.49,1487.69 3014,1427.5C 3006.83,1394.91 3008.83,1362.91 3020,1331.5C 3036.37,1293.8 3064.2,1268.64 3103.5,1256C 3124.85,1249.55 3146.51,1245.72 3168.5,1244.5 Z"/></g>
<g><path style="opacity:0.99" fill="#228ee0" d="M 3571.5,1244.5 C 3647.17,1244.17 3722.84,1244.5 3798.5,1245.5C 3783.17,1279.17 3767.83,1312.83 3752.5,1346.5C 3687.84,1347.33 3623.17,1347.83 3558.5,1348C 3533.09,1352.76 3522.59,1367.92 3527,1393.5C 3531.07,1406.57 3539.57,1415.41 3552.5,1420C 3589.36,1421.14 3626.19,1421.98 3663,1422.5C 3696.87,1421.12 3727.7,1430.29 3755.5,1450C 3782.07,1473.31 3796.24,1502.81 3798,1538.5C 3801.19,1575.23 3793.19,1609.23 3774,1640.5C 3751.78,1670.66 3721.94,1688.49 3684.5,1694C 3666.41,1696.86 3648.57,1697.7 3631,1696.5C 3609.04,1697.21 3587.38,1698.21 3566,1699.5C 3558.88,1698.56 3551.88,1698.22 3545,1698.5C 3505.91,1700.16 3466.74,1700.99 3427.5,1701C 3427.83,1668 3428.17,1635 3428.5,1602C 3502.83,1601.67 3577.17,1601.33 3651.5,1601C 3675.52,1596.48 3686.69,1581.98 3685,1557.5C 3680.05,1538.74 3667.88,1527.91 3648.5,1525C 3610.83,1524.67 3573.17,1524.33 3535.5,1524C 3470.92,1519.74 3431.08,1486.24 3416,1423.5C 3408,1384.52 3413.33,1347.52 3432,1312.5C 3447.4,1288.1 3468.57,1270.6 3495.5,1260C 3520.16,1250.9 3545.5,1245.73 3571.5,1244.5 Z"/></g>
<g><path style="opacity:0.994" fill="#228ee0" d="M 842.5,1247.5 C 963.5,1247.5 1084.5,1247.5 1205.5,1247.5C 1205.5,1281.5 1205.5,1315.5 1205.5,1349.5C 1122.17,1349.5 1038.83,1349.5 955.5,1349.5C 955.5,1375.5 955.5,1401.5 955.5,1427.5C 1037.17,1427.5 1118.83,1427.5 1200.5,1427.5C 1200.5,1458.83 1200.5,1490.17 1200.5,1521.5C 1118.83,1521.5 1037.17,1521.5 955.5,1521.5C 955.5,1548.17 955.5,1574.83 955.5,1601.5C 1038.83,1601.5 1122.17,1601.5 1205.5,1601.5C 1205.5,1634.83 1205.5,1668.17 1205.5,1701.5C 1084.5,1701.5 963.5,1701.5 842.5,1701.5C 842.5,1550.17 842.5,1398.83 842.5,1247.5 Z"/></g>
<g><path style="opacity:0.993" fill="#228ee0" d="M 1215.5,1247.5 C 1261.5,1247.33 1307.5,1247.5 1353.5,1248C 1389.12,1295.41 1424.62,1342.91 1460,1390.5C 1495.97,1343.02 1532.14,1295.69 1568.5,1248.5C 1613.16,1247.33 1657.83,1247.17 1702.5,1248C 1642.98,1323.36 1583.64,1398.86 1524.5,1474.5C 1582.83,1549.83 1641.17,1625.17 1699.5,1700.5C 1653.5,1701.67 1607.5,1701.83 1561.5,1701C 1527.03,1654.36 1492.36,1607.86 1457.5,1561.5C 1423.59,1607.66 1389.92,1653.99 1356.5,1700.5C 1310.17,1701.67 1263.84,1701.83 1217.5,1701C 1276.17,1626.33 1334.83,1551.67 1393.5,1477C 1333.55,1400.89 1274.21,1324.39 1215.5,1247.5 Z"/></g>
<g><path style="opacity:0.992" fill="#228ee0" d="M 1714.5,1247.5 C 1803.17,1247.33 1891.83,1247.5 1980.5,1248C 2061.62,1256.45 2108.12,1300.95 2120,1381.5C 2123.74,1418.12 2116.74,1452.45 2099,1484.5C 2079.76,1514.06 2053.26,1534.23 2019.5,1545C 2002.25,1550.52 1984.58,1553.85 1966.5,1555C 1921.17,1555.5 1875.83,1555.67 1830.5,1555.5C 1830.67,1603.17 1830.5,1650.83 1830,1698.5C 1791.57,1699.5 1753.07,1699.83 1714.5,1699.5C 1714.5,1548.83 1714.5,1398.17 1714.5,1247.5 Z M 1827.5,1352.5 C 1871.17,1352.33 1914.83,1352.5 1958.5,1353C 1986.42,1358.58 2001.08,1375.58 2002.5,1404C 2000.99,1432.84 1985.99,1449.84 1957.5,1455C 1913.5,1455.5 1869.5,1455.67 1825.5,1455.5C 1825.96,1421.16 1826.63,1386.83 1827.5,1352.5 Z"/></g>
<g><path style="opacity:0.993" fill="#228ee0" d="M 2163.5,1247.5 C 2251.5,1247.33 2339.5,1247.5 2427.5,1248C 2471.05,1251.36 2507.22,1269.19 2536,1301.5C 2562.12,1336.64 2571.79,1375.31 2565,1417.5C 2555.18,1467 2527.35,1502.16 2481.5,1523C 2469.77,1527.58 2457.77,1530.91 2445.5,1533C 2494.06,1587.72 2542.06,1642.89 2589.5,1698.5C 2544.5,1699.67 2499.5,1699.83 2454.5,1699C 2410.31,1645.65 2366.31,1592.15 2322.5,1538.5C 2306.18,1537.5 2289.85,1537.17 2273.5,1537.5C 2273.5,1591.5 2273.5,1645.5 2273.5,1699.5C 2236.83,1699.5 2200.17,1699.5 2163.5,1699.5C 2163.5,1548.83 2163.5,1398.17 2163.5,1247.5 Z M 2276.5,1349.5 C 2320.5,1349.33 2364.5,1349.5 2408.5,1350C 2436.8,1353.3 2452.8,1368.97 2456.5,1397C 2453.96,1422.55 2439.96,1437.55 2414.5,1442C 2369.17,1442.5 2323.83,1442.67 2278.5,1442.5C 2278.02,1411.5 2277.36,1380.5 2276.5,1349.5 Z"/></g>
<g><path style="opacity:0.995" fill="#228ee0" d="M 2612.5,1247.5 C 2732.5,1247.5 2852.5,1247.5 2972.5,1247.5C 2972.5,1281.5 2972.5,1315.5 2972.5,1349.5C 2890.17,1349.5 2807.83,1349.5 2725.5,1349.5C 2725.5,1375.5 2725.5,1401.5 2725.5,1427.5C 2805.17,1427.5 2884.83,1427.5 2964.5,1427.5C 2964.5,1458.83 2964.5,1490.17 2964.5,1521.5C 2884.83,1521.5 2805.17,1521.5 2725.5,1521.5C 2725.5,1548.17 2725.5,1574.83 2725.5,1601.5C 2807.83,1601.5 2890.17,1601.5 2972.5,1601.5C 2972.5,1634.83 2972.5,1668.17 2972.5,1701.5C 2852.5,1701.5 2732.5,1701.5 2612.5,1701.5C 2612.5,1550.17 2612.5,1398.83 2612.5,1247.5 Z"/></g>
</svg>
